<svg width="22" height="22" viewBox="0 0 22 22" fill="none" xmlns="http://www.w3.org/2000/svg">
<path d="M11 0C17.0751 0 22 4.92487 22 11C22 17.0751 17.0751 22 11 22C4.92487 22 0 17.0751 0 11C0 4.92487 4.92487 0 11 0Z" fill="#F0F0F0"/>
<path d="M2.27582 17.6977C1.41177 16.5735 0.76023 15.2778 0.380859 13.8701H6.10335L2.27582 17.6977Z" fill="#0052B4"/>
<path d="M21.6248 13.8701C21.2454 15.2776 20.5938 16.5734 19.7298 17.6976L15.9023 13.8701H21.6248Z" fill="#0052B4"/>
<path d="M0.380859 8.13017C0.760273 6.7226 1.41181 5.42688 2.27582 4.30273L6.10322 8.13017H0.380859Z" fill="#0052B4"/>
<path d="M17.6986 19.7259C16.5744 20.5899 15.2787 21.2415 13.8711 21.6209V15.8984L17.6986 19.7259Z" fill="#0052B4"/>
<path d="M4.30469 2.27392C5.42888 1.40986 6.7246 0.75832 8.13217 0.378906V6.10131L4.30469 2.27392Z" fill="#0052B4"/>
<path d="M8.13213 21.6208C6.72456 21.2414 5.42884 20.5898 4.30469 19.7258L8.13213 15.8984V21.6208Z" fill="#0052B4"/>
<path d="M13.873 0.378906C15.2806 0.75832 16.5763 1.40986 17.7005 2.27387L13.873 6.10131V0.378906Z" fill="#0052B4"/>
<path d="M15.9023 8.13021L19.7298 4.30273C20.5938 5.42688 21.2454 6.72264 21.6248 8.13021H15.9023Z" fill="#0052B4"/>
<path d="M21.9069 12.4348H12.4349H12.4348V21.9069C11.9651 21.968 11.4863 22 11 22C10.5136 22 10.0349 21.968 9.56523 21.9069V12.4349V12.4348H0.0931133C0.0319688 11.9651 0 11.4863 0 11C0 10.5136 0.0319688 10.0349 0.0931133 9.56523H9.56514H9.56519V0.0931129C10.0349 0.0319684 10.5136 0 11 0C11.4863 0 11.9651 0.0319254 12.4348 0.0931129V9.56514V9.56519H21.9069C21.968 10.0349 22 10.5136 22 11C22 11.4863 21.968 11.9651 21.9069 12.4348Z" fill="#D80027"/>
<path d="M13.8672 8.13124L18.7758 3.22266C19.0015 3.44833 19.2169 3.68427 19.4224 3.92885L15.2199 8.13128H13.8672V8.13124Z" fill="#D80027"/>
<path d="M8.12932 8.1313H8.12924L3.2207 3.22276C3.44637 2.997 3.68232 2.78165 3.92689 2.57617L8.12932 6.77869V8.1313Z" fill="#D80027"/>
<path d="M8.12939 13.8691V13.8692L3.22081 18.7778C2.99505 18.5521 2.7797 18.3162 2.57422 18.0716L6.77669 13.8692H8.12939V13.8691Z" fill="#D80027"/>
<path d="M13.8672 13.8691L18.7758 18.7778C18.5501 19.0035 18.3142 19.2189 18.0696 19.4243L13.8672 15.2218V13.8691Z" fill="#D80027"/>
</svg>
