<svg width="23" height="22" viewBox="0 0 23 22" fill="none" xmlns="http://www.w3.org/2000/svg">
<path d="M0 10.9994C0 9.65387 0.24376 8.36498 0.689044 7.17332L11.078 6.2168L21.467 7.17332C21.9123 8.36498 22.156 9.65387 22.156 10.9994C22.156 12.345 21.9123 13.6338 21.467 14.8255L11.078 15.782L0.689044 14.8255C0.24376 13.6338 0 12.345 0 10.9994Z" fill="#FFDA44"/>
<path d="M21.4654 14.8262C19.9002 19.0149 15.8396 22.0001 11.0765 22.0001C6.31331 22.0001 2.25275 19.0149 0.6875 14.8262H21.4654Z" fill="#D80027"/>
<path d="M0.6875 7.17393C2.25275 2.98517 6.31331 0 11.0765 0C15.8396 0 19.9002 2.98517 21.4654 7.17393H0.6875Z" fill="#D80027"/>
</svg>
