<svg width="22" height="22" viewBox="0 0 22 22" fill="none" xmlns="http://www.w3.org/2000/svg">
<g clip-path="url(#clip0)">
<path d="M11 0C17.0751 0 22 4.92487 22 11C22 17.0751 17.0751 22 11 22C4.92487 22 0 17.0751 0 11C0 4.92487 4.92487 0 11 0Z" fill="#F0F0F0"/>
<path d="M10.9994 22.0001C6.26979 22.0001 2.23782 19.015 0.683594 14.8262H21.3153C19.761 19.015 15.729 22.0001 10.9994 22.0001Z" fill="#A2001D"/>
<path d="M10.9994 0C15.729 0 19.761 2.98512 21.3152 7.17393H0.683594C2.23782 2.98512 6.26979 0 10.9994 0Z" fill="#0052B4"/>
</g>
<defs>
<clipPath id="clip0">
<rect width="22" height="22" fill="white"/>
</clipPath>
</defs>
</svg>
