<?xml version="1.0" encoding="UTF-8"?>
<svg width="26px" height="26px" viewBox="0 0 26 26" version="1.1" xmlns="http://www.w3.org/2000/svg" xmlns:xlink="http://www.w3.org/1999/xlink">
    <!-- Generator: Sketch 52.2 (67145) - http://www.bohemiancoding.com/sketch -->
    <title>Icons/Global-Icons/Upload Copy</title>
    <desc>Created with Sketch.</desc>
    <defs>
        <filter x="-10.4%" y="-5.9%" width="120.8%" height="111.9%" filterUnits="objectBoundingBox" id="filter-1">
            <feOffset dx="0" dy="2" in="SourceAlpha" result="shadowOffsetOuter1"></feOffset>
            <feGaussianBlur stdDeviation="3" in="shadowOffsetOuter1" result="shadowBlurOuter1"></feGaussianBlur>
            <feColorMatrix values="0 0 0 0 0   0 0 0 0 0   0 0 0 0 0  0 0 0 0.05 0" type="matrix" in="shadowBlurOuter1" result="shadowMatrixOuter1"></feColorMatrix>
            <feMerge>
                <feMergeNode in="shadowMatrixOuter1"></feMergeNode>
                <feMergeNode in="SourceGraphic"></feMergeNode>
            </feMerge>
        </filter>
    </defs>
    <g id="Symbols" stroke="none" stroke-width="1" fill="none" fill-rule="evenodd">
        <g id="UI-Components/Calendar/event/Column/Active" transform="translate(-3.000000, -15.000000)" fill="#80888F">
            <g id="EVENT" filter="url(#filter-1)">
                <g id="Stacked-Group" transform="translate(8.000000, 16.000000)">
                    <g id="hour">
                        <g id="Icons/Small-Icons/Event-Copy" transform="translate(0.000000, 2.000000)">
                            <g id="Icons/Global-Icons/Upload">
                                <path d="M13.3333333,8 C13.3333333,5.05933333 10.9406667,2.66666667 8,2.66666667 C5.05933333,2.66666667 2.66666667,5.05933333 2.66666667,8 C2.66666667,10.9406667 5.05933333,13.3333333 8,13.3333333 C10.9406667,13.3333333 13.3333333,10.9406667 13.3333333,8 M14.6666667,8 C14.6666667,11.682 11.682,14.6666667 8,14.6666667 C4.318,14.6666667 1.33333333,11.682 1.33333333,8 C1.33333333,4.318 4.318,1.33333333 8,1.33333333 C11.682,1.33333333 14.6666667,4.318 14.6666667,8 M12,8.66666667 C12,9.03466667 11.7013333,9.33333333 11.3333333,9.33333333 L8.66666667,9.33333333 C7.93,9.33333333 7.33333333,8.73666667 7.33333333,8 L7.33333333,4.66666667 C7.33333333,4.29866667 7.632,4 8,4 C8.368,4 8.66666667,4.29866667 8.66666667,4.66666667 L8.66666667,7.33333333 C8.66666667,7.7 8.96666667,8 9.33333333,8 L11.3333333,8 C11.7013333,8 12,8.29866667 12,8.66666667" id="🔴-icon"></path>
                            </g>
                        </g>
                    </g>
                </g>
            </g>
        </g>
    </g>
</svg>