<?xml version="1.0" encoding="UTF-8"?>
<svg width="24px" height="22px" viewBox="0 0 24 22" version="1.1" xmlns="http://www.w3.org/2000/svg" xmlns:xlink="http://www.w3.org/1999/xlink">
    <!-- Generator: Sketch 52.3 (67297) - http://www.bohemiancoding.com/sketch -->
    <title>Icons/Small-Icons/Event Copy</title>
    <desc>Created with Sketch.</desc>
    <g id="Symbols" stroke="none" stroke-width="1" fill="none" fill-rule="evenodd">
        <g id="UI-Components/Richiesta/InSospeso" transform="translate(-170.000000, -54.000000)" fill="#80888F">
            <g id="Padding-Group-2">
                <g id="Group-Copy-2" transform="translate(40.000000, 53.000000)">
                    <g id="Stacked-Group-2" transform="translate(130.000000, 0.000000)">
                        <g id="Icons/Small-Icons/Event-Copy">
                            <g id="Icons/Global-Icons/Upload">
                                <path d="M23.3683778,12.7154004 C23.3683778,14.2182523 22.8097987,15.659665 21.7921221,16.7786259 C20.7677327,17.9093199 19.3855175,18.5908906 17.8726899,18.6989733 L14.4755647,18.6989733 C13.9158417,18.6989733 13.4657084,18.24884 13.4657084,17.689117 C13.4657084,17.1293941 13.9158417,16.6792608 14.4755647,16.6792608 L17.7743128,16.6804341 C19.7421769,16.529374 21.3486653,14.7525775 21.3486653,12.7154004 C21.3486653,10.7894956 19.9690746,9.10113343 18.1547743,8.79127215 C17.7048339,8.71628208 17.3612549,8.34878311 17.3163931,7.89267202 C17.0830214,5.45060383 15.0553476,3.61067762 12.5963039,3.61067762 C10.7676549,3.61067762 9.08379082,4.67806426 8.3044707,6.33254838 C8.08011246,6.80370068 7.53456105,7.0268808 7.04095105,6.84737877 C6.84356274,6.77427198 6.62878172,6.73675565 6.4073922,6.73675565 C5.38148885,6.73675565 4.54414784,7.57409665 4.54414784,8.6 C4.54414784,8.82816571 4.58091749,9.03867194 4.65664256,9.24323812 C4.82055438,9.70517143 4.63770335,10.2184761 4.21477776,10.4633249 C3.23045713,11.0378467 2.61971253,12.0991406 2.61971253,13.2349076 C2.61971253,15.0069945 4.01444533,16.5848098 5.62135524,16.6837782 L9.48829569,16.6837782 C10.0480186,16.6837782 10.498152,17.1339116 10.498152,17.6936345 C10.498152,18.2533574 10.0480186,18.7034908 9.48829569,18.7034908 L5.58521561,18.7034908 C5.57674538,18.7034908 5.57674538,18.7034908 5.54512043,18.7028839 C4.21023773,18.629269 2.95844816,17.9988807 2.01468501,16.9328677 C1.10170436,15.8984801 0.6,14.5894646 0.6,13.2394251 C0.6,11.6528044 1.33071293,10.1493467 2.56301567,9.16000663 C2.53750922,8.97442797 2.52443532,8.79191807 2.52443532,8.60903491 C2.52443532,6.46820314 4.26656043,4.72607803 6.4073922,4.72607803 C6.56106449,4.72607803 6.71630478,4.73543051 6.87103159,4.75365989 C7.39222171,3.92480688 8.09312645,3.21638199 8.92302859,2.68067843 C10.0131598,1.97473444 11.2857728,1.6 12.5917864,1.6 C14.2830918,1.6 15.9060354,2.23002467 17.1533145,3.37176483 C18.210604,4.33868772 18.9265496,5.59846822 19.2141491,6.98745019 C21.6390408,7.74619898 23.3637125,10.0978124 23.3683778,12.7154004 Z M9.47375437,14.0951158 C9.28388847,14.2922842 9.02370931,14.3983573 8.75646817,14.3983573 C8.49371606,14.3983573 8.23475389,14.2907884 8.04446735,14.1005019 C7.64883258,13.7048671 7.64883258,13.0676175 8.04446735,12.6719827 L11.2689563,9.44760251 C11.4562597,9.25280701 11.7178466,9.14414784 11.9864476,9.14414784 C12.2507231,9.14414784 12.5104976,9.25405247 12.6984485,9.44200328 L15.9284279,12.6719827 C16.3240627,13.0676175 16.3240627,13.7048671 15.9284279,14.1005019 C15.5323421,14.4965877 14.8930134,14.4965877 14.5044263,14.1005019 L12.9963039,12.5923795 L12.9963039,21.6960986 C12.9963039,22.2558215 12.5461706,22.7059548 11.9864476,22.7059548 C11.4267247,22.7059548 10.9765914,22.2558215 10.9765914,21.6960986 L10.9765914,12.592348 L9.47375437,14.0951158 Z" id="🔴-icon"></path>
                            </g>
                        </g>
                    </g>
                </g>
            </g>
        </g>
    </g>
</svg>