<svg width="18" height="18" viewBox="0 0 18 18" fill="none" xmlns="http://www.w3.org/2000/svg">
<path opacity="0.083334" d="M10.0399 2.07692C10.0399 0.92987 9.57497 0 9.00141 0C8.42785 0 7.96289 0.92987 7.96289 2.07692C7.96289 3.22398 8.42785 4.15385 9.00141 4.15385C9.57497 4.15385 10.0399 3.22398 10.0399 2.07692Z" fill="black"/>
<path opacity="0.166667" d="M13.3623 3.5237C13.9358 2.53031 13.9981 1.49255 13.5014 1.20579C13.0047 0.919033 12.1371 1.49187 11.5635 2.48525C10.99 3.47864 10.9277 4.5164 11.4244 4.80316C11.9211 5.08992 12.7887 4.51708 13.3623 3.5237Z" fill="black"/>
<path opacity="0.25" d="M15.5147 6.43784C16.5081 5.86432 17.081 4.99674 16.7942 4.50004C16.5074 4.00334 15.4696 4.06562 14.4762 4.63915C13.4827 5.21267 12.9099 6.08025 13.1967 6.57695C13.4835 7.07365 14.5213 7.01137 15.5147 6.43784Z" fill="black"/>
<path opacity="0.333334" d="M15.923 10.0385C17.0701 10.0385 18 9.57356 18 9.00003C18 8.4265 17.0701 7.96156 15.923 7.96156C14.7759 7.96156 13.8459 8.4265 13.8459 9.00003C13.8459 9.57356 14.7759 10.0385 15.923 10.0385Z" fill="black"/>
<path opacity="0.416667" d="M14.4779 13.3609C15.4713 13.9345 16.5091 13.9967 16.7959 13.5C17.0827 13.0033 16.5099 12.1358 15.5164 11.5622C14.523 10.9887 13.4852 10.9264 13.1984 11.4231C12.9116 11.9198 13.4845 12.7874 14.4779 13.3609Z" fill="black"/>
<path opacity="0.5" d="M11.5619 15.5148C12.1355 16.5081 13.0031 17.081 13.4998 16.7942C13.9965 16.5075 13.9342 15.4697 13.3606 14.4763C12.7871 13.4829 11.9195 12.9101 11.4228 13.1969C10.926 13.4836 10.9883 14.5214 11.5619 15.5148Z" fill="black"/>
<path opacity="0.583334" d="M7.96227 15.9231C7.96227 17.0701 8.42723 18 9.00079 18C9.57435 18 10.0393 17.0701 10.0393 15.9231C10.0393 14.776 9.57435 13.8462 9.00079 13.8462C8.42723 13.8462 7.96227 14.776 7.96227 15.9231Z" fill="black"/>
<path opacity="0.666667" d="M4.63994 14.4763C4.06637 15.4697 4.00407 16.5075 4.50078 16.7942C4.99749 17.081 5.86511 16.5081 6.43867 15.5148C7.01223 14.5214 7.07454 13.4836 6.57783 13.1969C6.08112 12.9101 5.2135 13.4829 4.63994 14.4763Z" fill="black"/>
<path opacity="0.75" d="M2.48532 11.5622C1.49189 12.1357 0.91905 13.0033 1.20583 13.5C1.49261 13.9967 2.53043 13.9344 3.52385 13.3609C4.51727 12.7873 5.09011 11.9197 4.80333 11.423C4.51655 10.9263 3.47874 10.9886 2.48532 11.5622Z" fill="black"/>
<path opacity="0.833334" d="M2.07703 7.96152C0.92992 7.96152 0 8.42646 0 8.99999C0 9.57352 0.92992 10.0385 2.07703 10.0385C3.22415 10.0385 4.15407 9.57352 4.15407 8.99999C4.15407 8.42646 3.22415 7.96152 2.07703 7.96152Z" fill="black"/>
<path opacity="0.916667" d="M3.52429 4.63906C2.53087 4.06554 1.49306 4.00326 1.20628 4.49996C0.919495 4.99666 1.49234 5.86424 2.48576 6.43776C3.47918 7.01128 4.51699 7.07356 4.80377 6.57687C5.09056 6.08017 4.51771 5.21259 3.52429 4.63906Z" fill="black"/>
<path d="M6.43809 2.48524C5.86453 1.49186 4.99691 0.919024 4.5002 1.20578C4.00349 1.49254 4.06579 2.5303 4.63936 3.52369C5.21292 4.51707 6.08054 5.08991 6.57725 4.80315C7.07396 4.51639 7.01165 3.47863 6.43809 2.48524Z" fill="black"/>
</svg>
