<?xml version="1.0" encoding="utf-8"?>
<!-- Generator: Adobe Illustrator 24.0.1, SVG Export Plug-In . SVG Version: 6.00 Build 0)  -->
<svg version="1.1" id="Livello_1" xmlns="http://www.w3.org/2000/svg" xmlns:xlink="http://www.w3.org/1999/xlink" x="0px" y="0px"
	 viewBox="0 0 30.2 30.2" style="enable-background:new 0 0 30.2 30.2;" xml:space="preserve">
<style type="text/css">
	.st0{fill:#80888D;}
</style>
<g id="Group_356" transform="translate(-9.7 -7.55)">
	<g id="Group_355" transform="translate(9.7 7.55)">
		<g id="a" transform="translate(0 0)">
			<path id="Path_149" class="st0" d="M4.2,7C3.9,7.3,3.6,7.8,3.4,8.2c-0.1,0.3-0.1,0.6-0.1,1c0,0.8,0.3,1.6,0.9,2.2
				c0.1,0.1,0.2,0.2,0.3,0.2c0,0,0,0,0,0c0.1,0.1,0.2,0.2,0.3,0.2c0,0,0,0,0,0c0.5,0.3,1,0.4,1.5,0.4c1.7,0,3.1-1.4,3.1-3.1
				c0,0,0,0,0,0c0-0.2,0-0.5-0.1-0.7l0,0C9.2,7.9,9,7.4,8.6,7C8,6.4,7.2,6.1,6.4,6.1C5.6,6.1,4.8,6.4,4.2,7 M16.6,25.6L16.6,25.6
				c-0.1-0.2-0.3-0.3-0.5-0.4h0c-0.3-0.2-0.7-0.3-1-0.3c-0.4,0-0.7,0.1-1.1,0.3c0,0,0,0,0,0c-0.1,0.1-0.3,0.2-0.4,0.3v0
				c-0.2,0.2-0.4,0.5-0.5,0.8c0,0.1-0.1,0.3-0.1,0.4c0,0.1,0,0.2,0,0.2c0,0.6,0.2,1.1,0.6,1.5c0.1,0.1,0.2,0.2,0.3,0.2l0,0
				c0.4,0.2,0.8,0.4,1.2,0.4c0.5,0,1-0.2,1.3-0.5h0l0.1-0.1c0.4-0.4,0.6-0.9,0.6-1.5V27c0-0.2,0-0.3-0.1-0.5
				C17,26.2,16.8,25.8,16.6,25.6 M21.8,22.8c-0.1,0.1-0.2,0.2-0.4,0.3v0c-0.2,0.2-0.4,0.5-0.5,0.7l0,0c0,0.1-0.1,0.3-0.1,0.4
				c0,0,0,0.1,0,0.2c0,0.4,0.1,0.8,0.4,1.2l0,0c0,0.1,0.1,0.1,0.2,0.2c0.3,0.4,0.8,0.6,1.3,0.6c0.4,0,0.9-0.2,1.2-0.5h0l0.1-0.1
				c0.4-0.3,0.6-0.8,0.6-1.3l0,0v0c0-0.2,0-0.3-0.1-0.5l0,0c-0.1-0.3-0.2-0.6-0.4-0.8l0,0l-0.1-0.1c-0.3-0.4-0.8-0.6-1.3-0.5
				C22.4,22.5,22.1,22.6,21.8,22.8L21.8,22.8 M7.8,21.5c-0.2,0-0.3,0-0.5,0c-0.6,0-1.1,0.2-1.5,0.6v0c-0.2,0.2-0.4,0.5-0.5,0.9l0,0
				c-0.1,0.2-0.1,0.4-0.1,0.6c0,1.1,0.9,2,2,2.1h0.1c0.1,0,0.3,0,0.4,0h0c0.4-0.1,0.8-0.3,1.1-0.6l0,0c0,0,0,0,0,0c0,0,0,0,0.1,0
				l0,0l0,0c0.4-0.4,0.6-0.9,0.5-1.4c0-0.2,0-0.4-0.1-0.5c-0.1-0.4-0.3-0.7-0.6-1C8.5,21.7,8.2,21.5,7.8,21.5
				C7.8,21.4,7.8,21.4,7.8,21.5 M5,13.9L5,13.9c-0.2,0-0.4-0.1-0.6-0.1c-0.7,0-1.3,0.3-1.8,0.7c-0.3,0.3-0.5,0.6-0.6,1
				c-0.1,0.3-0.1,0.5-0.1,0.8c0,1.3,1,2.5,2.4,2.6h0.4c0.1,0,0.1,0,0.2,0h0c0.5-0.1,1-0.4,1.3-0.7l0,0c0.5-0.5,0.8-1.1,0.8-1.8
				c0-0.2,0-0.4-0.1-0.6c-0.1-0.4-0.3-0.9-0.7-1.2C5.8,14.2,5.4,14,5,13.9 M24.8,7.8c-0.2-0.1-0.4-0.1-0.5-0.1c-0.2,0-0.4,0-0.6,0.2
				l0,0c0,0,0,0-0.1,0c-0.1,0.1-0.1,0.1-0.2,0.2c-0.1,0.1-0.2,0.3-0.3,0.5c0,0.1-0.1,0.3-0.1,0.4c0,0.3,0.1,0.6,0.4,0.8
				c0.1,0.1,0.1,0.1,0.2,0.1c0.5,0.3,1.1,0.3,1.5-0.1h0c0,0,0,0,0-0.1c0,0,0,0,0,0c0.2-0.2,0.4-0.5,0.4-0.8c0-0.1,0-0.2,0-0.3l0,0
				c-0.1-0.2-0.2-0.4-0.3-0.6l0,0C25.1,7.9,25,7.8,24.8,7.8 M14.9,1c-1,0-1.9,0.4-2.6,1.1c-0.4,0.4-0.7,0.9-0.9,1.5v0
				c-0.1,0.4-0.2,0.8-0.2,1.2c0,0.2,0,0.3,0,0.5l0,0c0,0,0,0.1,0,0.1c0.1,0.8,0.5,1.5,1,2c0.7,0.7,1.6,1.1,2.6,1.1
				c1,0,1.9-0.4,2.6-1.1c0.7-0.7,1.1-1.6,1.1-2.6c0-0.3,0-0.6-0.1-0.9c-0.2-0.7-0.5-1.2-1-1.7C16.8,1.4,15.8,1,14.9,1 M26.8,14.5
				L26.8,14.5c-0.3,0-0.6,0.1-0.9,0.2c0,0,0,0,0,0c-0.1,0.1-0.2,0.2-0.3,0.3v0c-0.2,0.2-0.3,0.4-0.4,0.6l0,0c0,0.2-0.1,0.3-0.1,0.5
				c0,0.4,0.2,0.8,0.5,1.1c0.1,0.1,0.1,0.1,0.2,0.2c0.3,0.2,0.6,0.3,0.9,0.3c0.4,0,0.7-0.1,1-0.4h0l0.1-0.1c0.3-0.3,0.5-0.7,0.5-1.1
				c0-0.1,0-0.3,0-0.4l0,0c-0.1-0.3-0.2-0.5-0.4-0.7c-0.1-0.1-0.2-0.2-0.4-0.3h0C27.3,14.5,27,14.5,26.8,14.5z"/>
		</g>
	</g>
</g>
</svg>
