<?xml version="1.0" encoding="UTF-8"?>
<svg width="16px" height="20px" viewBox="0 0 16 20" version="1.1" xmlns="http://www.w3.org/2000/svg" xmlns:xlink="http://www.w3.org/1999/xlink">
    <!-- Generator: Sketch 52.3 (67297) - http://www.bohemiancoding.com/sketch -->
    <title>Oval</title>
    <desc>Created with Sketch.</desc>
    <g id="Symbols" stroke="none" stroke-width="1" fill="none" fill-rule="evenodd">
        <g id="Icons/Global-Icons/Pin" transform="translate(-4.000000, -2.000000)" fill="#80888F">
            <path d="M12.2730389,19.3168948 C13.0499131,18.5566455 13.9530476,17.5297002 14.787292,16.4406374 C16.7592289,13.866376 18,11.4063358 18,10 C18,6.6862915 15.3137085,4 12,4 C8.6862915,4 6,6.6862915 6,10 C6,11.4063358 7.24077105,13.866376 9.21270798,16.4406374 C10.0469524,17.5297002 10.9500869,18.5566455 11.7269611,19.3168948 C11.8218013,19.4097053 11.9130866,19.4968375 12,19.5776794 C12.0869134,19.4968375 12.1781987,19.4097053 12.2730389,19.3168948 Z M12,22 C11,22 4,14.418278 4,10 C4,5.581722 7.581722,2 12,2 C16.418278,2 20,5.581722 20,10 C20,14.418278 13,22 12,22 Z M12,12 C13.1045695,12 14,11.1045695 14,10 C14,8.8954305 13.1045695,8 12,8 C10.8954305,8 10,8.8954305 10,10 C10,11.1045695 10.8954305,12 12,12 Z" id="Oval"></path>
        </g>
    </g>
</svg>