<?xml version="1.0" encoding="UTF-8"?>
<svg width="24px" height="24px" viewBox="0 0 24 24" version="1.1" xmlns="http://www.w3.org/2000/svg" xmlns:xlink="http://www.w3.org/1999/xlink">
    <!-- Generator: Sketch 52.3 (67297) - http://www.bohemiancoding.com/sketch -->
    <title>Icons/Large-Icons/VoteSelected Copy</title>
    <desc>Created with Sketch.</desc>
    <g id="Symbols" stroke="none" stroke-width="1" fill="none" fill-rule="evenodd">
        <g id="rating" transform="translate(-48.000000, -8.000000)" fill="#FFC600">
            <g id="Padding-Group-2">
                <g id="Stacked-Group" transform="translate(16.000000, 8.000000)">
                    <g id="Icons/Large-Icons/VoteSelected" transform="translate(32.000000, 0.000000)">
                        <path d="M20.0647202,14.48175 C19.5523126,14.968875 19.3195091,15.670875 19.4395108,16.359375 L20.2135224,20.764875 C20.4547261,22.13625 19.3387094,23.25 18.0726905,23.25 C17.7390856,23.25 17.3946804,23.172375 17.0610754,23.001375 L13.011015,20.92125 C12.6942103,20.75925 12.3474052,20.67825 11.9994,20.67825 C11.6525948,20.67825 11.3057897,20.75925 10.988985,20.92125 L6.93892463,23.001375 C6.60531966,23.172375 6.26091443,23.25 5.92730947,23.25 C4.6612907,23.25 3.54527406,22.13625 3.7864776,20.764875 L4.56048916,16.359375 C4.68049098,15.670875 4.44768744,14.968875 3.93527983,14.48175 L0.658031029,11.362125 C-0.630788177,10.13475 0.0808223801,7.996125 1.86164891,7.743 L6.39051639,7.100625 C7.09852701,7.0005 7.71053604,6.56625 8.02614074,5.939625 L10.051771,1.932375 C10.4501769,1.14375 11.2253884,0.75 11.9994,0.75 C12.7746116,0.75 13.5498231,1.14375 13.948229,1.932375 L15.9738593,5.939625 C16.289464,6.56625 16.9014731,7.0005 17.6094836,7.100625 L22.1383511,7.743 C23.9191776,7.996125 24.6307882,10.13475 23.341969,11.362125 L20.0647202,14.48175 Z" id="star_favorite-[#1499]"></path>
                    </g>
                </g>
            </g>
        </g>
    </g>
</svg>