<?xml version="1.0" encoding="UTF-8"?>
<svg width="24px" height="24px" viewBox="0 0 24 24" version="1.1" xmlns="http://www.w3.org/2000/svg" xmlns:xlink="http://www.w3.org/1999/xlink">
    <!-- Generator: Sketch 52.6 (67491) - http://www.bohemiancoding.com/sketch -->
    <title>Slice 1</title>
    <desc>Created with Sketch.</desc>
    <g id="Page-1" stroke="none" stroke-width="1" fill="none" fill-rule="evenodd">
        <g id="star-half" fill="#FFC600" fill-rule="nonzero">
            <path d="M22.307518,10.160947 C22.6812032,9.78135256 22.4770314,9.12663104 21.9276994,9.043344 L17.3994474,8.35823696 C16.2075671,8.17844752 15.1720961,7.3945308 14.6351719,6.25740791 L12.6093795,1.98266571 C12.4930693,1.73708677 12.2709483,1.6 11.9994,1.6 C11.7290021,1.6 11.5069107,1.73712886 11.3904584,1.98300791 L9.36581558,6.25532051 C8.82790395,7.3945308 7.79243303,8.17844752 6.60116807,8.358144 L2.07273581,9.04327808 C1.52296859,9.12663104 1.31879682,9.78135256 1.69224182,10.1607031 L4.96878063,13.4875826 C5.84352001,14.3746003 6.24468679,15.6611201 6.03786091,16.9268667 L5.26380089,21.6263607 C5.19769008,22.0272956 5.51389355,22.4 5.92730947,22.4 C6.03422448,22.4 6.14280369,22.372135 6.25362263,22.3115448 L10.3060591,20.0914459 C10.8319214,19.8046162 11.4124166,19.6568 11.9994,19.6568 C12.5873326,19.6568 13.1678492,19.804491 13.696317,20.0927448 L17.7452984,22.3109542 C17.8571963,22.372135 17.9657756,22.4 18.0726905,22.4 C18.4861066,22.4 18.80231,22.0272956 18.7361507,21.6260667 L17.9617885,16.9247294 C17.755345,15.6613133 18.1563572,14.3749941 19.0308177,13.4879901 L22.307518,10.160947 Z M20.0647202,14.6472 C19.5523126,15.1668 19.3195091,15.9156 19.4395109,16.65 L20.2135224,21.3492 C20.4547261,22.812 19.3387094,24 18.0726905,24 C17.7390856,24 17.3946805,23.9172 17.0610754,23.7348 L13.011015,21.516 C12.6942103,21.3432 12.3474052,21.2568 11.9994,21.2568 C11.6525948,21.2568 11.3057897,21.3432 10.988985,21.516 L6.93892463,23.7348 C6.60531967,23.9172 6.26091443,24 5.92730947,24 C4.6612907,24 3.54527406,22.812 3.7864776,21.3492 L4.56048916,16.65 C4.68049097,15.9156 4.44768744,15.1668 3.93527983,14.6472 L0.65803103,11.3196 C-0.630788176,10.0104 0.0808223798,7.7292 1.86164891,7.4592 L6.39051639,6.774 C7.09852701,6.6672 7.71053603,6.204 8.02614075,5.5356 L10.051771,1.2612 C10.4501768,0.42 11.2253885,0 11.9994,0 C12.7746116,0 13.5498232,0.42 13.948229,1.2612 L15.9738593,5.5356 C16.289464,6.204 16.9014731,6.6672 17.6094836,6.774 L22.1383511,7.4592 C23.9191776,7.7292 24.6307882,10.0104 23.341969,11.3196 L20.0647202,14.6472 Z M12,0 L12,21.2568001 C11.6525948,21.2568 11.3057897,21.3432 10.988985,21.516 L6.93892463,23.7348 C6.60531967,23.9172 6.26091443,24 5.92730947,24 C4.6612907,24 3.54527406,22.812 3.7864776,21.3492 L4.56048916,16.65 C4.68049097,15.9156 4.44768744,15.1668 3.93527983,14.6472 L0.658031029,11.3196 C0.205947043,10.860367 4.26698391e-07,10.2815369 6.60727839e-13,9.71186464 L-1.33226763e-15,9.711848 C6.69113871e-06,8.65748144 0.705495766,7.63449016 1.86164891,7.4592 L6.39051639,6.774 C7.09852701,6.6672 7.71053603,6.204 8.02614075,5.5356 L10.051771,1.2612 C10.4501768,0.42 11.2253885,0 11.9994,0 L12,0 Z" id="Shape"></path>
        </g>
    </g>
</svg>