<?xml version="1.0" encoding="UTF-8"?>
<svg width="28px" height="32px" viewBox="0 0 28 32" version="1.1" xmlns="http://www.w3.org/2000/svg" xmlns:xlink="http://www.w3.org/1999/xlink">
    <!-- Generator: Sketch 52.3 (67297) - http://www.bohemiancoding.com/sketch -->
    <title>Icon/32/Folder</title>
    <desc>Created with Sketch.</desc>
    <g id="Symbols" stroke="none" stroke-width="1" fill="none" fill-rule="evenodd">
        <g id="UI-Components/File-Upload/Done" transform="translate(-92.000000, -48.000000)">
            <g id="Group-4" transform="translate(90.000000, 48.000000)">
                <g id="Icons/Large-Icons/Zip">
                    <g id="Group" transform="translate(2.000000, 0.000000)">
                        <path d="M27.0658105,8.73315636 L19.0456715,1.02768337 L5.99228632,1.02768337 C5.31561709,1.02768337 4.76679242,1.57641332 4.76679242,2.25317726 L4.76679242,29.8674392 C4.76679242,30.5443239 5.31573796,31.0933642 5.99228632,31.0933642 L25.8403166,31.0933642 C26.5171279,31.0933642 27.0658105,30.5444922 27.0658105,29.8674392 L27.0658105,8.73315636 Z" id="Path" stroke="#9B9B9B" fill="#F5F6F7"></path>
                        <path d="M26.3241342,8.02016505 L19.7473735,1.70144019 L19.7473735,6.79424 C19.7473735,7.47129303 20.2960561,8.02016505 20.9728674,8.02016505 L26.3241342,8.02016505 Z" id="Path" stroke="#9B9B9B" fill="#F5F6F7"></path>
                        <path d="M18.5212497,20.0761263 C18.5212497,21.1762257 17.6296152,22.0678602 16.5299469,22.0678602 L1.99130274,22.0678602 C0.891203368,22.0678602 0,21.1762257 0,20.0761263 L0,13.9917339 C0,12.8916345 0.891203368,12 1.99130274,12 L16.5295158,12 C17.629184,12 18.5208185,12.8916345 18.5208185,13.9917339 L18.5208185,20.0761263 L18.5212497,20.0761263 Z" id="Path" fill="#5AC0B1"></path>
                        <path d="M3.71,19.121 L6.518,19.121 L6.518,20.363 L2,20.363 L2,19.193 L4.763,15.233 L2.036,15.233 L2.036,14 L6.5,14 L6.5,15.17 L3.71,19.121 Z M10.002,14 L10.002,20.363 L8.463,20.363 L8.463,14 L10.002,14 Z M13.603,18.131 L13.603,20.363 L12.064,20.363 L12.064,14 L14.557,14 C15.3130038,14 15.888998,14.1874981 16.285,14.5625 C16.681002,14.9375019 16.879,15.4429968 16.879,16.079 C16.879,16.475002 16.7905009,16.8274985 16.6135,17.1365 C16.4364991,17.4455015 16.1740017,17.6884991 15.826,17.8655 C15.4779983,18.0425009 15.0550025,18.131 14.557,18.131 L13.603,18.131 Z M14.386,16.898 C15.0040031,16.898 15.313,16.6250027 15.313,16.079 C15.313,15.5209972 15.0040031,15.242 14.386,15.242 L13.603,15.242 L13.603,16.898 L14.386,16.898 Z" id="ZIP" fill="#FFFFFF"></path>
                    </g>
                </g>
            </g>
        </g>
    </g>
</svg>