<?xml version="1.0" encoding="UTF-8"?>
<svg width="20px" height="18px" viewBox="0 0 20 18" version="1.1" xmlns="http://www.w3.org/2000/svg" xmlns:xlink="http://www.w3.org/1999/xlink">
    <!-- Generator: Sketch 52.2 (67145) - http://www.bohemiancoding.com/sketch -->
    <title>Icons/Global-Icons/Calendar Copy</title>
    <desc>Created with Sketch.</desc>
    <g id="Symbols" stroke="none" stroke-width="1" fill="none" fill-rule="evenodd">
        <g id="UI-Components/Navigation/HeadMenu" transform="translate(-288.000000, -3.000000)" fill="#5AC0B1">
            <g id="Icons/Global-Icons/Attività" transform="translate(286.000000, 0.000000)">
                <path d="M19.5536993,20.4999717 L4.43436754,20.4999717 C3.08990347,20.4999717 2,19.4473116 2,18.1487896 L2,8.15626549 C2,6.85774345 3.08990347,5.80508335 4.43436754,5.80508335 L7.05369928,5.80508335 C7.62608412,5.8031166 8.15007614,5.49458138 8.41408115,5.00406787 L8.54534606,4.76203441 C8.96255469,3.98549654 9.79347149,3.49864721 10.699284,3.50000282 L13.0859189,3.50000282 C13.9927459,3.50040798 14.824559,3.98643613 15.2458234,4.76203441 L15.3711217,5.00406787 C15.6361183,5.49641519 16.1629397,5.80526182 16.7374702,5.80508335 L19.5656325,5.80508335 C20.9100965,5.80508335 22,6.85774345 22,8.15626549 L22,18.1487896 C22.0000078,18.7743639 21.7418931,19.3741496 21.2827764,19.8154146 C20.8236598,20.2566795 20.2013988,20.5030383 19.5536993,20.4999717 Z M4.93008334,7.07178973 C4.13692626,7.07471054 3.49470329,7.68841767 3.49164678,8.44635716 L3.49164678,17.684729 C3.49470329,18.4426684 4.13692626,19.0563756 4.93008334,19.0592964 L19.0579835,19.0592964 C19.8511406,19.0563756 20.4933635,18.4426684 20.49642,17.684729 L20.49642,8.44635716 C20.4933635,7.68841767 19.8511406,7.07471054 19.0579835,7.07178973 L16.4152745,7.07178973 C15.5679115,7.07141516 14.7906435,6.62206835 14.397003,5.90500575 L14.279921,5.68123896 C14.0323012,5.22604991 13.5400255,4.94051245 13.0031691,4.94067744 L10.7730349,4.94067744 C10.2371116,4.93884767 9.74564916,5.22516368 9.50185845,5.68123896 L9.37920106,5.90500575 C8.98746746,6.62378019 8.20899431,7.07382372 7.36092961,7.07178973 L4.93008334,7.07178973 Z M11.9940334,9.98304181 C10.1827959,9.98572691 8.71519061,11.4031823 8.7124105,13.1525275 C8.7124105,14.9029862 10.1816431,16.3220133 11.9940334,16.3220133 C13.8064237,16.3220133 15.2756563,14.9029862 15.2756563,13.1525275 C15.2756563,11.4020689 13.8064237,9.98304181 11.9940334,9.98304181 Z M11.9940334,8.54236648 C14.6302375,8.54236648 16.7673031,10.6064059 16.7673031,13.1525275 C16.7673031,15.6986492 14.6302375,17.7626886 11.9940334,17.7626886 C9.35782936,17.7626886 7.22076372,15.6986492 7.22076372,13.1525275 C7.22076372,10.6064059 9.35782936,8.54236648 11.9940334,8.54236648 Z" id="Shape"></path>
            </g>
        </g>
    </g>
</svg>