<?xml version="1.0" encoding="UTF-8"?>
<svg width="20px" height="21px" viewBox="0 0 20 21" version="1.1" xmlns="http://www.w3.org/2000/svg" xmlns:xlink="http://www.w3.org/1999/xlink">
    <!-- Generator: Sketch 52.2 (67145) - http://www.bohemiancoding.com/sketch -->
    <title>🔴 icon</title>
    <desc>Created with Sketch.</desc>
    <g id="Symbols" stroke="none" stroke-width="1" fill="none" fill-rule="evenodd">
        <g id="Icons/Global-Icons/Notification_ON" transform="translate(-3.000000, -1.000000)" fill="#1d1d1b">
            <path d="M11.1440385,16.3827672 L10.794226,18.0767059 C10.6489451,18.780217 11.0502272,19.5050496 11.7277985,19.7511147 C12.4072437,19.9978604 13.1857419,19.6983761 13.5289469,19.0639194 L14.3495774,17.5468829 L15.9707547,18.1356257 L19.322289,19.352833 C19.3029863,17.9630987 19.5853491,16.3226734 20.2753612,14.4311137 C21.3463867,11.4950655 21.1702158,9.34687647 20.2678118,7.76464985 C19.907083,7.13622513 19.4563414,6.65127162 18.9830874,6.29583726 L17.8562122,5.44950492 L18.2741051,4.10358823 C18.3668247,3.80496438 18.3800415,3.56771628 18.3263455,3.42134662 C18.2855855,3.30906273 18.1854254,3.20529617 17.8427217,3.08084073 C17.5169428,2.96253165 17.363408,2.97972437 17.2507363,3.04230587 C17.1011475,3.12771079 16.9516957,3.32543451 16.8513562,3.58143971 L16.3214713,4.93338249 L14.8718973,4.84816207 C14.282573,4.8135157 13.6146088,4.89300614 12.9325603,5.13572219 C10.9935591,5.81615396 9.56834364,7.65181517 8.64408062,10.185537 C7.95937421,12.0625521 7.10463274,13.5040385 6.16301906,14.5738723 L11.1440385,16.3827672 Z M21.3307538,20.0822655 L21.3111981,20.0750481 C21.311903,20.0750202 21.3122792,20.0750053 21.3018946,20.0717845 L21.3307538,20.0822655 Z M21.1652057,20.02774 L20.9829902,19.9883818 L20.7966397,19.9833771 C20.888975,19.9858569 20.9749027,19.9949637 21.0557059,20.0091844 C21.0921786,20.0136708 21.1286977,20.0198544 21.1652057,20.02774 Z M3.00022431,15.0408811 C2.99280561,14.7197669 3.16985246,14.4241607 3.46565204,14.2961754 C3.46565204,14.2961754 3.92938643,14.0492748 4.5703129,13.3545243 C5.16899518,12.6997908 6.03387077,11.5049361 6.76518771,9.50014561 C7.58569424,7.25085586 9.20718022,4.32345798 12.2703151,3.2485467 C13.3677161,2.85798853 14.3524549,2.81417077 14.9892746,2.85160939 C15.188768,2.34262393 15.5773851,1.6946655 16.2591096,1.30544763 C16.7106377,1.05411418 17.4744216,0.819289553 18.5254128,1.20096498 C19.5886104,1.58707321 20.0268766,2.24460404 20.2063114,2.7389038 C20.4700461,3.457645 20.3425326,4.18654896 20.1841551,4.69663864 C20.6838569,5.0719364 21.4100251,5.73708297 22.002358,6.76898435 C22.8886518,8.32294918 23.6436276,11.0336218 22.1542541,15.1165051 C21.4006516,17.182388 21.2934556,18.6524487 21.3269508,19.5090586 C21.3538649,20.3079204 21.5267619,20.7444876 21.5733306,20.8444612 C21.7330383,21.1654732 21.6993411,21.4854832 21.4989941,21.7311458 C21.3120249,21.9401357 21.0251647,22.0436149 20.7429469,21.9826563 C20.7018309,21.9815521 20.6651689,21.968238 20.628507,21.9549239 L15.2880636,20.0155015 C14.4806463,21.5081118 12.670441,22.2212426 11.0451074,21.6309905 C9.41977383,21.0407383 8.49249356,19.3334688 8.83555444,17.6722239 L3.5073605,15.73725 C3.21406462,15.6307374 3.01211272,15.3497424 3.00022431,15.0408811 Z" id="🔴-icon"></path>
        </g>
    </g>
</svg>