<?xml version="1.0" encoding="UTF-8"?>
<svg width="18px" height="18px" viewBox="0 0 18 18" version="1.1" xmlns="http://www.w3.org/2000/svg" xmlns:xlink="http://www.w3.org/1999/xlink">
    <!-- Generator: Sketch 52.2 (67145) - http://www.bohemiancoding.com/sketch -->
    <title>Icons/Global-Icons/Calendar</title>
    <desc>Created with Sketch.</desc>
    <defs>
        <path d="M19.2,8.4 L19.2,5.7 L17.4,5.7 L17.4,6.6 L15.6,6.6 L15.6,5.7 L8.4,5.7 L8.4,6.6 L6.6,6.6 L6.6,5.7 L4.8,5.7 L4.8,8.4 L19.2,8.4 Z M19.2,10.2 L4.8,10.2 L4.8,19.2 L19.2,19.2 L19.2,10.2 Z M17.4,3.9 L19.2,3.9 C20.1941125,3.9 21,4.70588745 21,5.7 L21,19.2 C21,20.1941125 20.1941125,21 19.2,21 L4.8,21 C3.80588745,21 3,20.1941125 3,19.2 L3,5.7 C3,4.70588745 3.80588745,3.9 4.8,3.9 L6.6,3.9 L6.6,3 L8.4,3 L8.4,3.9 L15.6,3.9 L15.6,3 L17.4,3 L17.4,3.9 Z" id="path-1"></path>
    </defs>
    <g id="Symbols" stroke="none" stroke-width="1" fill="none" fill-rule="evenodd">
        <g id="UI-Components/Navigation/HeadMenu" transform="translate(-145.000000, -3.000000)">
            <g id="Icons/Global-Icons/Calendar" transform="translate(142.000000, 0.000000)">
                <mask id="mask-2" fill="white">
                    <use xlink:href="#path-1"></use>
                </mask>
                <use id="Calendar" fill="#80888F" fill-rule="evenodd" xlink:href="#path-1"></use>
            </g>
        </g>
    </g>
</svg>