<?xml version="1.0" encoding="UTF-8"?>
<svg width="20px" height="12px" viewBox="0 0 20 12" version="1.1" xmlns="http://www.w3.org/2000/svg" xmlns:xlink="http://www.w3.org/1999/xlink">
    <!-- Generator: Sketch 52.2 (67145) - http://www.bohemiancoding.com/sketch -->
    <title>Icons/Global-Icons/Dashboard</title>
    <desc>Created with Sketch.</desc>
    <g id="Symbols" stroke="none" stroke-width="1" fill="none" fill-rule="evenodd">
        <g id="UI-Components/Navigation/HeadMenu" transform="translate(-2.000000, -6.000000)" fill="#80888F">
            <g id="Icons/Global-Icons/Dashboard">
                <path d="M18.7192429,8.53180877 C20.7171399,10.3226003 21.9789695,12.8955767 22,15.7567265 C22,16.2301541 21.5874023,16.6006627 21.0143433,16.6006627 C20.4412842,16.6006627 20.0256601,16.2066039 20,15.7567265 C19.8820801,13.6893311 19.2225037,12.1229248 17.9989277,10.7230225 L18.7192429,8.53180877 Z M13.8136597,8.20761108 C13.2668668,8.10469203 12.6990435,8.04294059 12.1312201,8.04294059 C7.99892768,8.04294059 4,11.2900395 4,15.7773103 C4,16.250738 3.53683472,16.6006627 3.00854492,16.6006627 C2.48025513,16.6006627 2,16.2301541 2,15.7773103 C2,10.3843518 6.47949527,6 11.9894848,6 C13.06204,6 14.0715037,6.14408668 15.0389064,6.45284385 L13.8136597,8.20761108 Z M16.3217666,7.54378584 C16.6582545,7.21444486 17.2260778,7.54378584 17.0788644,7.99662968 L14.639327,16.1889865 C14.3869611,17.0329228 13.6929548,17.6916047 12.8307045,17.9180267 C11.4637224,18.2679514 10.0546793,17.4651828 9.67613039,16.1272351 C9.44479495,15.262715 9.67613039,14.3570273 10.3070452,13.7189292 L16.3217666,7.54378584 Z" id="🔴-icon"></path>
            </g>
        </g>
    </g>
</svg>