<?xml version="1.0" encoding="UTF-8"?>
<svg width="16px" height="14px" viewBox="0 0 16 14" version="1.1" xmlns="http://www.w3.org/2000/svg" xmlns:xlink="http://www.w3.org/1999/xlink">
    <!-- Generator: Sketch 52.2 (67145) - http://www.bohemiancoding.com/sketch -->
    <title>Icons/Global-Icons/MenuMobile</title>
    <desc>Created with Sketch.</desc>
    <g id="Boom-Responsive" stroke="none" stroke-width="1" fill="none" fill-rule="evenodd">
        <g id="2.2-Calendario-(Vista-Mensile)" transform="translate(-340.000000, -122.000000)" fill="#1D1D1B">
            <g id="Group-3" transform="translate(0.000000, 99.000000)">
                <g id="Icons/Global-Icons/MenuMobile" transform="translate(336.000000, 18.000000)">
                    <path d="M5,5 L19,5 C19.5522847,5 20,5.44771525 20,6 C20,6.55228475 19.5522847,7 19,7 L5,7 C4.44771525,7 4,6.55228475 4,6 C4,5.44771525 4.44771525,5 5,5 Z M5,11 L13,11 C13.5522847,11 14,11.4477153 14,12 C14,12.5522847 13.5522847,13 13,13 L5,13 C4.44771525,13 4,12.5522847 4,12 C4,11.4477153 4.44771525,11 5,11 Z M5,17 L19,17 C19.5522847,17 20,17.4477153 20,18 C20,18.5522847 19.5522847,19 19,19 L5,19 C4.44771525,19 4,18.5522847 4,18 C4,17.4477153 4.44771525,17 5,17 Z" id="Rectangle-3"></path>
                </g>
            </g>
        </g>
    </g>
</svg>